# xmcd
#
# Track frame offsets: 
#        150
#        11626
#        21645
#        32060
#        43962
#        60223
#        72351
#        85918
#        98364
#        111142
#        122147
#        135598
#        151359
#        162416
#        175581
#        185510
#        195493
#        212843
#        224755
#        249219
#
# Disc length: 3565 seconds
#
# Revision: 1
# Processed by: cddbd v1.5.2PL0 Copyright (c) Steve Scherf et al.
# Submitted via: ExactAudioCopy v1.1
#
DISCID=160deb14
DTITLE=John Lee Hooker - Collection CD1
DYEAR=2010
DGENRE=Blues
TTITLE0=Boom Boom
TTITLE1=Dimples
TTITLE2=Big Legs, Tight Skirt
TTITLE3=Boogie Chillun
TTITLE4=My First Wife Left Me
TTITLE5=I´m Mad Again
TTITLE6=Baby Lee
TTITLE7=Crawlin' Kingsnake
TTITLE8=Hobo Blues
TTITLE9=No Shoes
TTITLE10=Whiskey And Wimmen
TTITLE11=One Way Ticket
TTITLE12=Bottle Up And Go
TTITLE13=Birmingham Blues
TTITLE14=Stop Talking
TTITLE15=I´m Leaving Baby
TTITLE16=Blues Before Sunrise
TTITLE17=Little Wheel
TTITLE18=Sugar Mama
TTITLE19=One Bourbon, One Scotch, One Beer
EXTD=YEAR: 2010
EXTT0=
EXTT1=
EXTT2=
EXTT3=
EXTT4=
EXTT5=
EXTT6=
EXTT7=
EXTT8=
EXTT9=
EXTT10=
EXTT11=
EXTT12=
EXTT13=
EXTT14=
EXTT15=
EXTT16=
EXTT17=
EXTT18=
EXTT19=
PLAYORDER=
